<?xml version="1.0" encoding="utf-8"?>
<!-- Generator: Adobe Illustrator 24.0.1, SVG Export Plug-In . SVG Version: 6.00 Build 0)  -->
<svg version="1.1" id="Calque_1" xmlns="http://www.w3.org/2000/svg" xmlns:xlink="http://www.w3.org/1999/xlink" x="0px" y="0px"
	 viewBox="0 0 20 20" style="enable-background:new 0 0 20 20;" xml:space="preserve">
<style type="text/css">
	.st0{fill:#1A237E;}
	.st1{fill-rule:evenodd;clip-rule:evenodd;fill:#E8EAF6;}
</style>
<path class="st0" d="M10,1.6L10,1.6c4.6,0,8.4,3.7,8.4,8.4l0,0c0,4.6-3.7,8.4-8.4,8.4l0,0c-4.6,0-8.4-3.7-8.4-8.4l0,0
	C1.6,5.4,5.4,1.6,10,1.6z"/>
<path class="st1" d="M13.5,6.8l-5,4.8l-1.3-1.4C7,10,6.6,9.9,6.3,10.1C6.1,10.3,6,10.7,6.2,11l1.6,2.5c0.2,0.2,0.4,0.4,0.7,0.4
	c0.3,0,0.6-0.1,0.7-0.4c0.3-0.3,5-6,5-6C14.8,6.9,14,6.3,13.5,6.8L13.5,6.8z"/>
</svg>
