<svg width="35" height="36" viewBox="0 0 35 36" fill="none" xmlns="http://www.w3.org/2000/svg">
<rect width="35" height="35" rx="10" fill="#00237C"/>
<path d="M20.4025 11.1308L17.5983 13.5948C17.2283 13.277 16.8406 13.0467 16.4351 12.9037C16.0259 12.7565 15.6094 12.6914 15.1856 12.7083C14.7618 12.7252 14.3408 12.8228 13.9226 13.0012C13.5088 13.1758 13.114 13.4281 12.7384 13.7581C12.0598 14.3544 11.6168 15.0424 11.4094 15.8222C11.1983 16.5976 11.2353 17.4274 11.5205 18.3114C11.8018 19.1911 12.3419 20.0856 13.1408 20.9947C13.9621 21.9294 14.7909 22.5929 15.6272 22.985C16.4677 23.3735 17.2823 23.5086 18.071 23.3904C18.8596 23.2723 19.5848 22.9225 20.2463 22.3412C20.6177 22.0149 20.9181 21.6639 21.1477 21.2882C21.3816 20.9088 21.5397 20.5164 21.6223 20.1111C21.7011 19.7015 21.7015 19.2888 21.6237 18.8732C21.5501 18.4537 21.3916 18.0409 21.1481 17.6346L23.9635 15.1834C24.4198 15.849 24.7484 16.5889 24.9495 17.403C25.1511 18.2092 25.2018 19.0458 25.1015 19.913C25.0017 20.7721 24.7293 21.6242 24.2842 22.4691C23.8397 23.306 23.197 24.0938 22.3561 24.8327C21.1866 25.8603 19.9084 26.5145 18.5214 26.7953C17.1387 27.0724 15.7399 26.9439 14.3251 26.4096C12.9145 25.8717 11.5828 24.8899 10.3302 23.4643C9.0738 22.0345 8.27382 20.5818 7.93026 19.1062C7.5867 17.6306 7.64524 16.2253 8.10586 14.8902C8.56274 13.5509 9.36738 12.3749 10.5198 11.3623C11.2795 10.6947 12.0775 10.1826 12.9138 9.82594C13.7544 9.46553 14.6065 9.26893 15.4702 9.23612C16.3301 9.19905 17.1768 9.33625 18.0102 9.64773C18.8479 9.95546 19.6453 10.4498 20.4025 11.1308Z" fill="white"/>
<circle cx="25" cy="9" r="2" fill="white"/>
</svg>
