<?xml version="1.0" encoding="utf-8"?>
<!-- Generator: Adobe Illustrator 24.0.1, SVG Export Plug-In . SVG Version: 6.00 Build 0)  -->
<svg version="1.0" xmlns="http://www.w3.org/2000/svg" xmlns:xlink="http://www.w3.org/1999/xlink" x="0px" y="0px"
	 viewBox="0 0 500 500" style="enable-background:new 0 0 500 500;" xml:space="preserve">
<style type="text/css">
	.st0{fill:#EBEBEB;}
	.st1{fill:#F0F0F0;}
	.st2{fill:#F5F5F5;}
	.st3{fill:#E0E0E0;}
	.st4{fill:#E6E6E6;}
	.st5{opacity:0.3;}
	.st6{fill:#FAFAFA;}
	.st7{display:none;}
	.st8{display:inline;}
	.st9{fill:#407BFF;}
	.st10{opacity:0.9;fill:#FFFFFF;}
	.st11{opacity:0.5;fill:#FFFFFF;}
	.st12{fill:#1A237E;}
	.st13{opacity:0.7;fill:#FFFFFF;}
	.st14{opacity:0.3;fill:#FFFFFF;}
	.st15{opacity:0.4;fill:#FFFFFF;}
	.st16{fill:#263238;}
	.st17{fill:#FFFFFF;}
	.st18{fill:#E4897B;}
	.st19{opacity:0.2;}
	.st20{opacity:0.5;fill:#1A237E;}
	.st21{opacity:0.4;}
	.st22{opacity:0.5;}
	.st23{fill:#DE5753;}
</style>
<g id="Background_Complete">
	<g>
		<rect x="416.8" y="348.5" class="st0" width="33.1" height="0.2"/>
		<rect x="322.5" y="351.2" class="st0" width="8.7" height="0.2"/>
		<rect x="396.6" y="339.2" class="st0" width="19.2" height="0.2"/>
		<rect x="52.5" y="340.9" class="st0" width="43.2" height="0.2"/>
		<rect x="104.6" y="340.9" class="st0" width="6.3" height="0.2"/>
		<rect x="131.5" y="345.1" class="st0" width="93.7" height="0.2"/>
		<path class="st0" d="M237,287.8H43.9c-3.1,0-5.7-2.6-5.7-5.7V10.7c0-3.1,2.6-5.7,5.7-5.7H237c3.1,0,5.7,2.6,5.7,5.7v271.4
			C242.7,285.2,240.2,287.8,237,287.8z M43.9,5.2c-3,0-5.5,2.4-5.5,5.5v271.4c0,3,2.4,5.5,5.5,5.5H237c3,0,5.5-2.4,5.5-5.5V10.7
			c0-3-2.4-5.5-5.5-5.5H43.9z"/>
		<path class="st0" d="M453.3,287.8H260.2c-3.1,0-5.7-2.6-5.7-5.7V10.7c0-3.1,2.6-5.7,5.7-5.7h193.1c3.1,0,5.7,2.6,5.7,5.7v271.4
			C459,285.2,456.5,287.8,453.3,287.8z M260.2,5.2c-3,0-5.5,2.4-5.5,5.5v271.4c0,3,2.4,5.5,5.5,5.5h193.1c3,0,5.5-2.4,5.5-5.5V10.7
			c0-3-2.4-5.5-5.5-5.5H260.2z"/>
		<rect y="332.4" class="st0" width="500" height="0.2"/>
	</g>
	<g>
		
			<rect x="84.6" y="187.8" transform="matrix(-1 -1.224647e-16 1.224647e-16 -1 171.5522 518.5535)" class="st0" width="2.3" height="143"/>
		<g>
			<path class="st1" d="M111.4,173c0,7.3-5.2,13.7-12.9,17.1H73c-7.7-3.4-12.9-9.8-12.9-17.1c0-7.3,5.2-13.7,12.9-17.1h25.5
				C106.2,159.3,111.4,165.7,111.4,173z"/>
			<path class="st2" d="M77.5,173c0-7.3,5.2-13.7,12.9-17.1h8.2c7.7,3.4,12.9,9.8,12.9,17.1c0,7.3-5.2,13.7-12.9,17.1h-8.2
				C82.7,186.7,77.5,180.3,77.5,173z"/>
		</g>
		<path class="st0" d="M69.7,331.8h32.1l0,0c0-2.2-1.8-3.9-3.9-3.9H73.6C71.5,327.9,69.7,329.7,69.7,331.8L69.7,331.8z"/>
	</g>
	<g>
		<g>
			<path class="st2" d="M409.8,271.6c0.1,0.1-0.4,0.8,1.6,0.5c4.8-0.7,13.2-2.7,15.5-7.6c3.3-7.1-7-4.5-6.6-8.1
				c0.4-3.6,12.1-3,13.3-8.3c1.2-5.3-6.7-2.8-6.8-5.3c-0.1-2.6,9.1-1,10.9-6.7c1.8-5.7-5.1-1.5-4.3-3.9c0.8-2.4,8.5-13.1,4.3-14.3
				c-4.2-1.2-11.3,9.8-14.1,11.3c-2.7,1.6-5.2-7.4-8.4-3.6c-3.3,3.8,1.9,17.1-2.3,19.6c-3.1,1.9-2.2-3.4-6.3-2.4
				C401,244.1,402.9,263.8,409.8,271.6z"/>
			<path class="st3" d="M424.6,242.8c-1.9,0.2-3.3,0.5-4.1,0.9c1.7-2.5,2.9-3.7,3-3.8c0.1-0.1,0.1-0.4,0-0.5c-0.1-0.1-0.4-0.1-0.5,0
				c0,0-2.8,2.9-5.9,8.6c-1.5-9.1,2.3-17,2.3-17.1c0.1-0.1,0-0.3-0.1-0.4c-0.1-0.1-0.3,0-0.4,0.1c0,0.1-4.1,8.6-2.3,18.1
				c-0.5,0.9-1,1.9-1.5,3c-1.4,3.1-2.9,7.1-4.1,11.9c-0.8-1.5-2.7-5.4-2.8-10.9c0-0.1-0.1-0.3-0.3-0.3c-0.1,0-0.3,0.1-0.3,0.3
				c0.2,6.3,2.6,10.7,3.2,11.6c-1.5,6.7-2.5,14.9-1.8,24.5c0,0.2,0.2,0.3,0.4,0.3c0,0,0,0,0,0c0.2,0,0.3-0.2,0.3-0.4
				c-0.9-12.8,1-23.1,3.7-30.8c0.7-0.8,2.7-2.8,5.7-3.2c0.1,0,0.2-0.2,0.2-0.3c0-0.1-0.2-0.2-0.3-0.2c-2.4,0.4-4.1,1.6-5.2,2.6
				c2-5.4,4.2-9.5,6.1-12.3c0.6-0.3,2.2-0.9,4.7-1.1c0.1,0,0.3-0.1,0.2-0.3C424.9,242.9,424.8,242.8,424.6,242.8z"/>
		</g>
		<g>
			<g>
				<path class="st4" d="M402,276.4c-4.9,0.1-13.3-4.5-16.6-8.9c-3.3-4.5,6.1-1.7,5.1-5.2c-1-3.5-12.6-0.9-14.7-6
					c-2.1-5.1,6.2-3.9,5.9-6.5c-0.3-2.6-9-2.1-11.8-7.4c-2.8-5.4,4.8-2.4,3.6-4.6c-1.2-2.2-10.8-11.6-6.8-13.6c4-2,13,7.8,16,8.9
					c3,1.1,3.7-5.7,7.6-2.4c3.9,3.2,1,17.4,5.6,19.2c3.4,1.4,2-5.1,5.9-3.4C408.8,249.3,404,276.4,402,276.4z"/>
				<g class="st5">
					<path class="st4" d="M402,276.4c-4.9,0.1-13.3-4.5-16.6-8.9c-3.3-4.5,6.1-1.7,5.1-5.2c-1-3.5-12.6-0.9-14.7-6
						c-2.1-5.1,6.2-3.9,5.9-6.5c-0.3-2.6-9-2.1-11.8-7.4c-2.8-5.4,4.8-2.4,3.6-4.6c-1.2-2.2-10.8-11.6-6.8-13.6c4-2,13,7.8,16,8.9
						c3,1.1,3.7-5.7,7.6-2.4c3.9,3.2,1,17.4,5.6,19.2c3.4,1.4,2-5.1,5.9-3.4C408.8,249.3,404,276.4,402,276.4z"/>
				</g>
			</g>
			<path class="st2" d="M400.4,270.5c0.1,0,0.1-0.1,0.2-0.1c0.1-0.2,2.8-5.4,2.2-13.2c0-0.2-0.2-0.3-0.4-0.3c-0.2,0-0.3,0.2-0.3,0.4
				c0.5,6.5-1.4,11.3-2,12.5c-2.2-6-4.8-11.3-7.5-15.8c0.9-10.6-4.5-19.2-4.6-19.3c-0.1-0.2-0.3-0.2-0.5-0.1
				c-0.2,0.1-0.2,0.3-0.1,0.5c0.1,0.1,5,8,4.6,17.9c-6.3-10.5-12.4-16.7-12.6-16.8c-0.2-0.2-0.5-0.2-0.6,0c-0.2,0.2-0.2,0.4,0,0.6
				c0.1,0.1,4.5,4.5,9.6,12.1c-3-1.1-6.2-1.7-9.3-1.6c-0.2,0-0.3,0.2-0.3,0.3c0,0.2,0.1,0.3,0.3,0.3c0,0,0,0,0,0
				c3.3-0.1,6.8,0.6,9.9,1.9c1.8,2.7,3.6,5.8,5.3,9.2c-1.7-1.1-5-2.7-9.2-1.6c-0.2,0-0.3,0.2-0.2,0.4c0,0.2,0.2,0.3,0.4,0.2
				c5.3-1.4,9.1,1.8,9.7,2.3c4.8,9.7,9,22,9.5,36c0,0.2,0.2,0.4,0.4,0.4c0,0,0,0,0,0c0.2,0,0.4-0.2,0.4-0.5
				C405.2,286.9,403.1,278.2,400.4,270.5z"/>
		</g>
		<path class="st4" d="M414.9,331.8c3.8-10.8,6.3-26.5,6.3-33.4c0-5.8-1.8-11-4.6-14.7h-19.5c-2.9,3.6-4.6,8.9-4.6,14.7
			c0,6.9,2.5,22.5,6.3,33.4H414.9z"/>
	</g>
	<g>
		<g>
			<g>
				<rect x="111" y="266.9" class="st0" width="85.7" height="29.6"/>
				<rect x="111" y="296.5" class="st0" width="85.7" height="29.6"/>
				<g>
					<polygon class="st2" points="143.5,296.5 154.2,266.9 137.8,266.9 127.1,296.5 					"/>
					<polygon class="st2" points="162.1,266.9 158.5,266.9 147.9,296.5 151.5,296.5 					"/>
				</g>
				<g>
					<polygon class="st2" points="132.9,326.1 143.5,296.5 127.1,296.5 116.5,326.1 					"/>
					<polygon class="st2" points="151.5,296.5 147.9,296.5 137.2,326.1 140.8,326.1 					"/>
				</g>
				
					<rect x="152.3" y="227.1" transform="matrix(-1.836970e-16 1 -1 -1.836970e-16 423.8101 116.1712)" class="st3" width="3" height="85.7"/>
				
					<rect x="152.3" y="256.5" transform="matrix(-1.836970e-16 1 -1 -1.836970e-16 453.1607 145.5218)" class="st3" width="3" height="85.7"/>
				<path class="st2" d="M109.5,265.6v61.8h1.5h1.5h82.7h1.5h1.5v-61.8H109.5z M195.2,324.4h-82.7v-26.3h82.7V324.4z M195.2,295.1
					h-82.7v-26.3h82.7V295.1z"/>
				<g>
					<rect x="199.7" y="266.9" class="st0" width="85.7" height="29.6"/>
					<rect x="199.7" y="296.5" class="st0" width="85.7" height="29.6"/>
					<g>
						<polygon class="st2" points="241.2,296.5 251.8,266.9 235.4,266.9 224.8,296.5 						"/>
						<polygon class="st2" points="259.8,266.9 256.2,266.9 245.5,296.5 249.1,296.5 						"/>
					</g>
					<g>
						<polygon class="st2" points="230.5,326.1 241.2,296.5 224.8,296.5 214.1,326.1 						"/>
						<polygon class="st2" points="249.1,296.5 245.5,296.5 234.9,326.1 238.5,326.1 						"/>
					</g>
					
						<rect x="241" y="227.1" transform="matrix(-1.836970e-16 1 -1 -1.836970e-16 512.5012 27.4802)" class="st3" width="3" height="85.7"/>
					
						<rect x="241" y="256.5" transform="matrix(-1.836970e-16 1 -1 -1.836970e-16 541.8517 56.8308)" class="st3" width="3" height="85.7"/>
					<path class="st2" d="M198.2,265.6v61.8h1.5h1.5h82.7h1.5h1.5v-61.8H198.2z M283.9,324.4h-82.7v-26.3h82.7V324.4z M283.9,295.1
						h-82.7v-26.3h82.7V295.1z"/>
				</g>
				<g>
					<rect x="288.4" y="266.9" class="st0" width="85.7" height="29.6"/>
					<rect x="288.4" y="296.5" class="st0" width="85.7" height="29.6"/>
					<g>
						<polygon class="st2" points="324.8,296.5 335.5,266.9 319.1,266.9 308.4,296.5 						"/>
						<polygon class="st2" points="343.4,266.9 339.8,266.9 329.2,296.5 332.8,296.5 						"/>
					</g>
					<g>
						<polygon class="st2" points="314.2,326.1 324.8,296.5 308.4,296.5 297.8,326.1 						"/>
						<polygon class="st2" points="332.8,296.5 329.2,296.5 318.5,326.1 322.1,326.1 						"/>
					</g>
					
						<rect x="329.7" y="227.1" transform="matrix(-1.836970e-16 1 -1 -1.836970e-16 601.1915 -61.2102)" class="st3" width="3" height="85.7"/>
					
						<rect x="329.7" y="256.5" transform="matrix(-1.836970e-16 1 -1 -1.836970e-16 630.5421 -31.8596)" class="st3" width="3" height="85.7"/>
					<path class="st2" d="M286.9,265.6v61.8h1.5h1.5h82.7h1.5h1.5v-61.8H286.9z M372.6,324.4h-82.7v-26.3h82.7V324.4z M372.6,295.1
						h-82.7v-26.3h82.7V295.1z"/>
				</g>
			</g>
			<polygon class="st3" points="367,331.8 118,331.8 116.8,327.4 368.3,327.4 			"/>
		</g>
		<g>
			<path class="st3" d="M245.1,284.5c0,1.4-1.2,2.6-2.6,2.6s-2.6-1.2-2.6-2.6c0-1.4,1.2-2.6,2.6-2.6S245.1,283.1,245.1,284.5z"/>
			<circle class="st6" cx="242.5" cy="283.8" r="2.6"/>
		</g>
		<g>
			<circle class="st3" cx="242.5" cy="311.7" r="2.6"/>
			<path class="st6" d="M245.1,310.9c0,1.4-1.2,2.6-2.6,2.6s-2.6-1.2-2.6-2.6c0-1.4,1.2-2.6,2.6-2.6S245.1,309.5,245.1,310.9z"/>
		</g>
		<g>
			<path class="st3" d="M156.4,284.5c0,1.4-1.2,2.6-2.6,2.6s-2.6-1.2-2.6-2.6c0-1.4,1.2-2.6,2.6-2.6S156.4,283.1,156.4,284.5z"/>
			<circle class="st6" cx="153.8" cy="283.8" r="2.6"/>
		</g>
		<g>
			<circle class="st3" cx="153.8" cy="311.7" r="2.6"/>
			<path class="st6" d="M156.4,310.9c0,1.4-1.2,2.6-2.6,2.6s-2.6-1.2-2.6-2.6c0-1.4,1.2-2.6,2.6-2.6S156.4,309.5,156.4,310.9z"/>
		</g>
		<g>
			<path class="st3" d="M335.3,284.5c0,1.4-1.2,2.6-2.6,2.6c-1.4,0-2.6-1.2-2.6-2.6c0-1.4,1.2-2.6,2.6-2.6
				C334.2,281.9,335.3,283.1,335.3,284.5z"/>
			<circle class="st6" cx="332.8" cy="283.8" r="2.6"/>
		</g>
		<g>
			<circle class="st3" cx="332.8" cy="311.7" r="2.6"/>
			<path class="st6" d="M335.3,310.9c0,1.4-1.2,2.6-2.6,2.6c-1.4,0-2.6-1.2-2.6-2.6c0-1.4,1.2-2.6,2.6-2.6
				C334.2,308.4,335.3,309.5,335.3,310.9z"/>
		</g>
	</g>
</g>
<g id="Background_Simple" class="st7">
	<g class="st8">
		<path class="st9" d="M387.9,270.7c-5.2,33.7,4.1,83.7-26.7,102.2c-40.6,24.3-93.4-38.5-140-50.2c-35.6-8.9-112.7,36.2-141.4,14.7
			c-28-21,30.3-97,33.1-130.4c2.8-33-31.9-100-9.4-125.7c30.3-34.6,104,31.3,150,43.6c40.9,10.9,146.4-23.2,169.7,9.9
			C442.6,162.3,392.9,238.1,387.9,270.7z"/>
		<path class="st10" d="M387.9,270.7c-5.2,33.7,4.1,83.7-26.7,102.2c-40.6,24.3-93.4-38.5-140-50.2c-35.6-8.9-112.7,36.2-141.4,14.7
			c-28-21,30.3-97,33.1-130.4c2.8-33-31.9-100-9.4-125.7c30.3-34.6,104,31.3,150,43.6c40.9,10.9,146.4-23.2,169.7,9.9
			C442.6,162.3,392.9,238.1,387.9,270.7z"/>
	</g>
</g>
<g id="Shadow">
	<ellipse id="_x3C_Path_x3E__2_" class="st2" cx="245.2" cy="362.4" rx="193.9" ry="11.3"/>
</g>
<g id="Interface">
	<g>
		<g>
			<g>
				<g>
					<rect x="81.9" y="31.3" class="st9" width="332.6" height="193.1"/>
					<rect x="81.9" y="31.3" class="st11" width="332.6" height="193.1"/>
				</g>
				<path class="st12" d="M81.9,31.3v15.6h55.6v-6c0-3,2.4-5.4,5.4-5.4h37c3,0,5.4,2.4,5.4,5.4v6h229.2V31.3H81.9z"/>
				<path class="st13" d="M95.7,39.1c0,2-1.6,3.6-3.6,3.6c-2,0-3.6-1.6-3.6-3.6c0-2,1.6-3.6,3.6-3.6C94.1,35.5,95.7,37.1,95.7,39.1z
					"/>
				<path class="st13" d="M106.5,39.1c0,2-1.6,3.6-3.6,3.6c-2,0-3.6-1.6-3.6-3.6c0-2,1.6-3.6,3.6-3.6
					C104.9,35.5,106.5,37.1,106.5,39.1z"/>
				<path class="st13" d="M117.2,39.1c0,2-1.6,3.6-3.6,3.6s-3.6-1.6-3.6-3.6c0-2,1.6-3.6,3.6-3.6S117.2,37.1,117.2,39.1z"/>
			</g>
			<rect x="185.3" y="76.7" class="st14" width="217" height="135.6"/>
			<rect x="93.5" y="76.7" class="st14" width="63.8" height="63.8"/>
			<rect x="93.5" y="76.7" class="st15" width="63.8" height="63.8"/>
			<rect x="108.4" y="157.3" class="st16" width="37.8" height="2.7"/>
			<g>
				<g>
					<rect x="337.1" y="55.9" class="st9" width="63.9" height="9.8"/>
					<rect x="337.1" y="55.9" class="st10" width="63.9" height="9.8"/>
				</g>
				<rect x="401" y="55.9" class="st12" width="1.2" height="9.8"/>
			</g>
			<g>
				<rect x="249.2" y="55.9" class="st12" width="1.2" height="9.8"/>
				<g>
					<rect x="185.3" y="55.9" class="st9" width="63.9" height="9.8"/>
					<rect x="185.3" y="55.9" class="st10" width="63.9" height="9.8"/>
				</g>
			</g>
			<path class="st15" d="M179.6,211.3L179.6,211.3c-1.7,0-3-1.3-3-3v-38.1c0-1.7,1.3-3,3-3l0,0c1.7,0,3,1.3,3,3v38.1
				C182.6,209.9,181.3,211.3,179.6,211.3z"/>
			<path class="st15" d="M103.6,158.7c0,2.6-2.1,4.8-4.8,4.8c-2.6,0-4.8-2.1-4.8-4.8c0-2.6,2.1-4.8,4.8-4.8
				C101.4,153.9,103.6,156.1,103.6,158.7z"/>
			<rect x="108.4" y="172.3" class="st16" width="48.4" height="2.7"/>
			<path class="st15" d="M103.6,173.7c0,2.6-2.1,4.8-4.8,4.8c-2.6,0-4.8-2.1-4.8-4.8c0-2.6,2.1-4.8,4.8-4.8
				C101.4,168.9,103.6,171.1,103.6,173.7z"/>
			<rect x="108.4" y="187.3" class="st16" width="41.6" height="2.7"/>
			<path class="st15" d="M103.6,188.7c0,2.6-2.1,4.8-4.8,4.8c-2.6,0-4.8-2.1-4.8-4.8s2.1-4.8,4.8-4.8
				C101.4,183.9,103.6,186.1,103.6,188.7z"/>
			<rect x="108.4" y="202.3" class="st16" width="37.8" height="2.7"/>
			<path class="st15" d="M103.6,203.7c0,2.6-2.1,4.8-4.8,4.8c-2.6,0-4.8-2.1-4.8-4.8c0-2.6,2.1-4.8,4.8-4.8
				C101.4,198.9,103.6,201.1,103.6,203.7z"/>
		</g>
		<g>
			<g>
				<g>
					<path class="st12" d="M311.5,230.6c5,0,28.9,0,33.9,0c0.7,0,0.8-1.1,0.1-1.1c-5,0-28.9,0-33.9,0
						C310.8,229.5,310.7,230.6,311.5,230.6L311.5,230.6z"/>
				</g>
				<g>
					<path class="st12" d="M350.8,230.6c1.4,0,2.9,0,4.3,0c0.7,0,0.8-1.1,0.1-1.1c-1.4,0-2.9,0-4.3,0
						C350.2,229.5,350.1,230.6,350.8,230.6L350.8,230.6z"/>
				</g>
			</g>
			<g>
				<g>
					<path class="st12" d="M183.9,26.7c-5,0-28.9,0-33.9,0c-0.7,0-0.8,1.1-0.1,1.1c5,0,28.9,0,33.9,0
						C184.5,27.9,184.6,26.7,183.9,26.7L183.9,26.7z"/>
				</g>
				<g>
					<path class="st12" d="M144.5,26.7c-1.4,0-2.9,0-4.3,0c-0.7,0-0.8,1.1-0.1,1.1c1.4,0,2.9,0,4.3,0
						C145.2,27.9,145.3,26.7,144.5,26.7L144.5,26.7z"/>
				</g>
			</g>
		</g>
	</g>
</g>
<g id="Menu">
	<g>
		<g>
			<rect x="328.8" y="100.7" class="st9" width="68.7" height="63.8"/>
			<rect x="328.8" y="100.7" class="st10" width="68.7" height="63.8"/>
		</g>
		
			<rect x="397.5" y="100.7" transform="matrix(-1 -1.224647e-16 1.224647e-16 -1 796.3828 265.3109)" class="st12" width="1.4" height="63.8"/>
		<g>
			<rect x="328.7" y="148" class="st12" width="68.8" height="16.5"/>
			<rect x="339.2" y="106.7" class="st16" width="47.9" height="4.5"/>
			<rect x="339.2" y="122.5" class="st16" width="47.9" height="4.5"/>
			<rect x="339.2" y="138.4" class="st16" width="47.9" height="4.5"/>
			<rect x="332.8" y="153.7" class="st17" width="60.7" height="5.6"/>
		</g>
		<g>
			<rect x="258.6" y="54.6" class="st9" width="68.7" height="78.9"/>
			<rect x="258.6" y="54.6" class="st10" width="68.7" height="78.9"/>
		</g>
		
			<rect x="327.4" y="54.6" transform="matrix(-1 -1.224647e-16 1.224647e-16 -1 656.1304 188.0552)" class="st12" width="1.4" height="78.9"/>
		<rect x="261" y="57" class="st12" width="63.9" height="9.8"/>
		<rect x="258.6" y="100.7" class="st12" width="68.8" height="16.5"/>
		<rect x="269" y="75.5" class="st16" width="47.9" height="4.5"/>
		<rect x="269" y="91.4" class="st16" width="47.9" height="4.5"/>
		<rect x="262.6" y="106.7" class="st17" width="60.7" height="5.6"/>
		<rect x="269" y="123.2" class="st16" width="47.9" height="4.5"/>
	</g>
</g>
<g id="Character">
	<g>
		<g>
			<path class="st18" d="M177.8,151.4c0,0-11.7,24.1-6.8,26.1c4.9,2,21.4,3.1,21.4,3.1l7.2,6.9l4.2-2.7l-1.1-7l-9.4-2l-12.6-3.9
				c-1.1-0.4-1.7-1.6-1.2-2.7l6.1-13.4L177.8,151.4z"/>
			<path class="st17" d="M181.4,142.7c-0.3-1-1.6-1.2-2.3-0.5c-1.2,1.4-3,4.1-5.1,9.6l-2.1,5.7l10.9,7.5l4.1-6.2L181.4,142.7z"/>
			<path class="st19" d="M180.2,149.4l1.2-1.5l2.3,1.8l3.1,9.2l-4.1,6.2l-2.1-1.4C181.3,157.7,180.2,149.4,180.2,149.4z"/>
			<g>
				<polygon class="st9" points="184.3,164 171.8,155.3 170.9,158 182.7,166.1 				"/>
				<polygon class="st11" points="184.3,164 171.8,155.3 170.9,158 182.7,166.1 				"/>
			</g>
		</g>
		<g>
			<polygon class="st18" points="183.5,330.6 177.8,350.1 172,349.7 173.2,328.6 			"/>
			<path class="st9" d="M213.7,186.4c0,0,7.1,14.2,0.3,40.3c-6.8,26.1-34,117.2-34,117.2l-7.7-0.9c0,0-0.5-32.7,10.3-59
				c0,0,5.2-44.8,2.7-55.4c-1.8-7.4-2.8-13.5,0.2-24.7c1.7-6.3,3.4-10.8,4.9-13.9c2-4,1.4-5.5,1.4-5.5L213.7,186.4z"/>
			<path class="st20" d="M213.7,186.4c0,0,7.1,14.2,0.3,40.3c-6.8,26.1-34,117.2-34,117.2l-7.7-0.9c0,0-0.5-32.7,10.3-59
				c0,0,5.2-44.8,2.7-55.4c-1.8-7.4-2.8-13.5,0.2-24.7c1.7-6.3,3.4-10.8,4.9-13.9c2-4,1.4-5.5,1.4-5.5L213.7,186.4z"/>
			<path class="st21" d="M204.6,260c-9.8-27.3-7.1-47.1-7.1-47.1l6.1-0.8l4.8,8.5l3.4,14C209.9,241.6,207.4,250.4,204.6,260z"/>
			<g>
				<path class="st9" d="M179.2,350.1c-0.1,0-0.1-0.1-0.1-0.2c0-0.1,0-0.1,0.1-0.2c0.1-0.1,3-1.3,4.2-0.8c0.2,0.1,0.4,0.3,0.5,0.5
					c0.1,0.3,0.1,0.6-0.1,0.8c-0.4,0.4-1.4,0.4-2.3,0.3C180.7,350.5,179.9,350.3,179.2,350.1z M179.8,349.9c1.4,0.3,3.3,0.6,3.8,0.1
					c0.1-0.1,0.1-0.2,0-0.4c-0.1-0.1-0.2-0.3-0.3-0.3c-0.1,0-0.2-0.1-0.3-0.1C181.8,349.3,180.8,349.5,179.8,349.9z"/>
				<path class="st9" d="M179.1,350.1c-0.1,0-0.1-0.1-0.1-0.2c0-0.1,0.5-2.1,1.6-2.8c0.3-0.2,0.7-0.3,1-0.2c0.5,0.1,0.6,0.4,0.6,0.6
					c0.1,0.9-2,2.3-3,2.6c0,0-0.1,0-0.1,0C179.1,350.1,179.1,350.1,179.1,350.1z M181.4,347.2c-0.2,0-0.5,0-0.7,0.2
					c-0.7,0.6-1.1,1.4-1.3,2.2c1-0.4,2.4-1.6,2.4-2.1c0,0,0-0.2-0.3-0.2L181.4,347.2L181.4,347.2z"/>
				<path class="st16" d="M178.5,348.9l-8.4-1c-0.3,0-0.6,0.1-0.7,0.4l-2.3,6.6c-0.2,0.6,0.1,1.2,0.7,1.4c0.1,0,0.2,0,0.2,0.1
					c3,0.3,5.7,0.5,9.5,0.9c4.4,0.5,3.2,0.9,8.4,1.6c3.1,0.4,4.1-3.1,2.8-3.4c-6-1.5-6.4-3.4-8.5-5.9
					C179.8,349.3,179.2,349,178.5,348.9z"/>
			</g>
			<g>
				<polygon class="st16" points="181.7,342.5 171,341.1 171.2,344.3 180.6,345.5 				"/>
				<polygon class="st21" points="181.7,342.5 171,341.1 171.2,344.3 180.6,345.5 				"/>
			</g>
		</g>
		<polygon class="st18" points="212.9,331.9 210.4,351.3 204.5,351.3 203,332.3 		"/>
		<path class="st9" d="M223,184.2c0,0,0.1,1.7,1.4,5.1c2.4,6.1,5,25.2,4.4,34.8c-1.5,27-17.5,120.7-17.5,120.7h-7.7
			c0,0-5.3-31.9,1-60c0,0,2.2-39.6-1.1-49.9c-2.3-7.2-8.8-14.1-7.1-29.3c1.7-15.2,5.7-20.4,5.7-20.4L223,184.2z"/>
		<path class="st20" d="M223,184.2c0,0,0.1,1.7,1.4,5.1c2.4,6.1,5,25.2,4.4,34.8c-1.5,27-17.5,120.7-17.5,120.7h-7.7
			c0,0-5.3-31.9,1-60c0,0,2.2-39.6-1.1-49.9c-2.3-7.2-8.8-14.1-7.1-29.3c1.7-15.2,5.7-20.4,5.7-20.4L223,184.2z"/>
		<g>
			<g>
				<path class="st9" d="M190.6,192.2l1.5-3c0.5,0.1,1,0.1,1.5,0.2l-0.9,3.1C192,192.4,191.3,192.3,190.6,192.2z"/>
				<path class="st9" d="M212.8,189.9c4.2-0.3,7.6-0.7,9.7-1l1.1,3.1c-2.2,0.4-6,0.9-10.8,1.2V189.9z"/>
				<path class="st9" d="M195.9,189.6c5.2,0.5,10.2,0.6,14.5,0.4v3.2c-1.4,0.1-2.9,0.1-4.4,0.1c-3.4,0-7.1-0.2-10.9-0.6L195.9,189.6
					z"/>
			</g>
			<g class="st22">
				<path class="st17" d="M190.6,192.2l1.5-3c0.5,0.1,1,0.1,1.5,0.2l-0.9,3.1C192,192.4,191.3,192.3,190.6,192.2z"/>
				<path class="st17" d="M212.8,189.9c4.2-0.3,7.6-0.7,9.7-1l1.1,3.1c-2.2,0.4-6,0.9-10.8,1.2V189.9z"/>
				<path class="st17" d="M195.1,192.7l0.8-3.1c5.2,0.5,10.2,0.6,14.5,0.4v3.2c-1.4,0.1-2.9,0.1-4.4,0.1"/>
			</g>
		</g>
		<g>
			<path class="st9" d="M213,351.1c-0.1,0-0.1-0.1-0.2-0.1c0-0.1,0-0.2,0.1-0.2c0.1-0.1,2.8-1.7,4.1-1.3c0.2,0.1,0.5,0.2,0.6,0.4
				c0.2,0.2,0.2,0.6,0,0.8c-0.3,0.4-1.3,0.6-2.3,0.6C214.6,351.3,213.8,351.3,213,351.1z M213.6,350.9c1.4,0.2,3.4,0.1,3.7-0.4
				c0.1-0.1,0.1-0.2,0-0.4c-0.1-0.1-0.2-0.2-0.4-0.2c-0.1,0-0.2,0-0.4,0C215.5,350,214.5,350.3,213.6,350.9z"/>
			<path class="st9" d="M212.9,351.1c-0.1,0-0.1-0.1-0.1-0.2c0-0.1,0.2-2.2,1.1-3c0.3-0.2,0.6-0.4,1-0.3c0.5,0,0.7,0.3,0.7,0.5
				c0.2,0.9-1.6,2.6-2.6,3c0,0-0.1,0-0.1,0C213,351.1,212.9,351.1,212.9,351.1z M214.8,348c-0.2,0-0.5,0.1-0.6,0.2
				c-0.6,0.7-0.9,1.5-1,2.4c0.9-0.6,2.1-1.9,2.1-2.4c0,0,0-0.2-0.4-0.2L214.8,348L214.8,348z"/>
			<path class="st16" d="M212.2,350.1l-8.4,0.2c-0.3,0-0.6,0.2-0.7,0.5l-1.4,6.9c-0.1,0.6,0.3,1.2,0.9,1.3c0.1,0,0.2,0,0.2,0
				c3-0.1,5.7-0.3,9.5-0.4c4.5-0.1,3.3,0.5,8.6,0.5c3.2,0,3.7-3.6,2.3-3.8c-6.2-0.7-6.8-2.5-9.2-4.7
				C213.5,350.2,212.8,350,212.2,350.1z"/>
		</g>
		<g>
			<path class="st16" d="M203.2,108.8c-0.2-0.6,0-1.2,0.4-1.3c0.4-0.1,0.9,0.3,1.1,0.9c0.2,0.6,0,1.2-0.4,1.3
				C203.9,109.8,203.4,109.4,203.2,108.8z"/>
			<path class="st23" d="M203.2,109.7l4.7,3c0,0-0.9,1.7-3.3,1.9L203.2,109.7z"/>
			<path class="st16" d="M201.7,107.6c0.1,0,0.2-0.1,0.3-0.2c0.3-0.9,0.9-1.7,1.8-2c0.2-0.1,0.3-0.3,0.3-0.5
				c-0.1-0.2-0.3-0.3-0.5-0.3c-1.1,0.4-2,1.3-2.3,2.5c-0.1,0.2,0,0.4,0.2,0.5c0,0,0,0,0,0C201.6,107.7,201.7,107.7,201.7,107.6z"/>
			<path class="st18" d="M182.1,115.5c3.2,7.5,4.3,10.7,9.6,13.3c7.3,1.9,16.4-1.7,15.5-9.9c-0.8-7.4-5.8-18.4-14.4-18.8
				c-6.1-0.3-11.3,4.4-11.6,10.5C181.1,112.2,181.4,113.9,182.1,115.5z"/>
			<path class="st19" d="M199.5,125.2c0,0,5.4,1.1,7.6-3.6c-0.7,3.8-3.9,6.2-7.7,7.2l-1.3-0.9l0.7-1.9L199.5,125.2z"/>
			<path class="st18" d="M189.7,137.6c0,0,4.7-2.3,1.3-11.3c0,0,3.7-3.7,7.6-2.1c3.9,1.6,0.6,9.8,5.2,11.1
				C203.8,135.3,201.4,138.7,189.7,137.6z"/>
			<path class="st16" d="M198.8,113.6c0,0-1.7-1.5-3.3-3.8c-1.6-2.3,2.1-5,1.5-9.2c-0.6-4.2-5.1-1.7-5.1-1.7s-10.6-1.2-12,9.8
				c0,0-3.6,5.1-1.4,11.4c2.1,5.9,8.4,9.5,14.6,8.4c0.2,0,0.5-0.1,0.7-0.2c2.8-0.8,4.7-3.6,4.8-6.5L198.8,113.6z"/>
			<path class="st16" d="M192,128.7c0,0-2.8,0.9-1.7,2S192,128.7,192,128.7z"/>
			<path class="st9" d="M182.8,111.2c-0.2-2.5-0.8-4.5-3.3-4.3c-2.5,0.2-2.7,2.2-2.5,4.7c0.2,2.5,0.6,4.5,3.1,4.3
				C182.7,115.8,183,113.7,182.8,111.2z"/>
			<path class="st18" d="M196.6,113.1c1.5,0.6,2.8,1.8,3.4,3.4c0.8,2-0.9,3.3-3,3c-1.9-0.3-4.5-1.7-4.5-3.9
				C192.6,113.4,194.7,112.4,196.6,113.1z"/>
			<path class="st16" d="M170.3,112.1c0.3,3.7,3.5,6.5,7.2,6.3c3.7-0.3,3.9-3.3,3.7-7c-0.3-3.7-0.9-6.7-4.6-6.4
				C172.8,105.2,170,108.4,170.3,112.1z"/>
			<g>
				<path class="st16" d="M195.8,97.3c-0.7,1-1.4,2.5-0.6,3.5c0.4,0.6,1.2,0.8,1.7,1.3c0.6,0.6,0.8,1.4,0.9,2.2
					c0.5,2.9,0.7,5.8,0.7,8.7c2-3.5,4.1-7.1,4.2-11.1c0-1.2-0.1-2.4-0.7-3.5c-0.6-1-1.6-1.9-2.8-2.1
					C198.1,96.2,195.8,97.3,195.8,97.3z"/>
			</g>
		</g>
		<g>
			<g>
				<path class="st9" d="M206.8,135.8c0,0,0.5-5.7-10.6-3.4c-11.1,2.3-3.6,5.5-3.6,5.5L206.8,135.8z"/>
				<path class="st11" d="M206.8,135.8c0,0,0.5-5.7-10.6-3.4c-11.1,2.3-3.6,5.5-3.6,5.5L206.8,135.8z"/>
			</g>
			<path class="st17" d="M222.8,186.2c-12.4,2.4-26.6,1.4-31.8,0.9c-1.2-0.1,1-14-11.5-39.1c-1.2-2.4-0.8-5.4,1.3-7.1
				c8.5-7.1,24-6.8,31.1-6.2c2.5,0.2,4.8,1.5,6.2,3.6c2.4,3.7,3.9,8.5,4.9,13.6c0.9,4.5,1.3,9.3,1.4,13.8
				C224.7,176.8,223.4,186.1,222.8,186.2z"/>
		</g>
		<path class="st19" d="M224.4,165.8c-4-0.8-9.6-15.5-9.6-15.5l8.2,1.7C223.8,156.5,224.2,161.3,224.4,165.8z"/>
		<g>
			<path class="st18" d="M222,142.4l11.9,7.6c0.9,0.6,2.1,0.3,2.6-0.7l9.6-17.3l3.5-9l1-1.1l6-5.1h2.3l-4.5,4l1.2,2.1l2,4.6l-8,7
				c0,0-4.6,20.8-9.6,25.2c-3.9,3.5-23.7-10.5-23.7-10.5L222,142.4z"/>
			<path class="st17" d="M213.8,135.1c3.1,0.9,9.9,4,20.5,14.1l-7.8,10.5c0,0-7.8-1.2-11.8-9.4c-2.7-5.7-3.1-10.9-3-13.6
				C211.8,135.6,212.8,134.8,213.8,135.1z"/>
			<g>
				<polygon class="st9" points="233.1,147.1 224.2,159.9 227.2,160.5 235.6,149.1 				"/>
				<polygon class="st11" points="233.1,147.1 224.2,159.9 227.2,160.5 235.6,149.1 				"/>
			</g>
		</g>
		<g>
			<polygon class="st16" points="212.9,343.2 202.2,343.2 202.8,346.3 212.2,346.3 			"/>
			<polygon class="st21" points="212.9,343.2 202.2,343.2 202.8,346.3 212.2,346.3 			"/>
		</g>
	</g>
</g>
</svg>
