<?xml version="1.0" encoding="utf-8"?>
<!-- Generator: Adobe Illustrator 24.0.1, SVG Export Plug-In . SVG Version: 6.00 Build 0)  -->
<svg version="1.1" id="Calque_1" xmlns="http://www.w3.org/2000/svg" xmlns:xlink="http://www.w3.org/1999/xlink" x="0px" y="0px"
	 viewBox="0 0 20 21" style="enable-background:new 0 0 20 21;" xml:space="preserve">
<style type="text/css">
	.st0{fill-rule:evenodd;clip-rule:evenodd;fill:#FCFCFC;}
</style>
<path class="st0" d="M0,2.2C0,1.7,0.2,1.3,0.5,1c0.3-0.3,0.7-0.5,1.2-0.5h16.7c0.2,0,0.4,0,0.6,0.1c0.2,0.1,0.4,0.2,0.5,0.4
	c0.2,0.2,0.3,0.3,0.4,0.5C20,1.7,20,2,20,2.2v16.7c0,0.2,0,0.4-0.1,0.6c-0.1,0.2-0.2,0.4-0.4,0.5c-0.2,0.2-0.3,0.3-0.5,0.4
	c-0.2,0.1-0.4,0.1-0.6,0.1H1.7c-0.2,0-0.4,0-0.6-0.1c-0.2-0.1-0.4-0.2-0.5-0.4c-0.2-0.2-0.3-0.3-0.4-0.5C0,19.3,0,19,0,18.8V2.2z
	 M7.9,8.1h2.7v1.4C11,8.7,12,8,13.5,8c2.9,0,3.6,1.6,3.6,4.4v5.3h-2.9v-4.6c0-1.6-0.4-2.5-1.4-2.5c-1.4,0-1.9,1-1.9,2.5v4.6H7.9V8.1
	z M2.9,17.6h2.9V8H2.9V17.6L2.9,17.6z M6.2,4.9c0,0.2,0,0.5-0.1,0.7C6,5.8,5.9,6,5.7,6.2C5.5,6.4,5.3,6.5,5.1,6.6S4.6,6.8,4.4,6.8
	s-0.5,0-0.7-0.1C3.4,6.5,3.2,6.4,3,6.2C2.9,6,2.7,5.8,2.6,5.6C2.5,5.4,2.5,5.1,2.5,4.9c0-0.5,0.2-1,0.6-1.3C3.4,3.2,3.9,3,4.4,3
	s1,0.2,1.3,0.5C6,3.9,6.2,4.4,6.2,4.9z"/>
</svg>
