<svg width="141" height="36" viewBox="0 0 141 36" fill="none" xmlns="http://www.w3.org/2000/svg">
<path d="M46.517 26V8.54545H53.4034C54.7273 8.54545 55.8551 8.7983 56.7869 9.30398C57.7188 9.80398 58.429 10.5 58.9176 11.392C59.4119 12.2784 59.6591 13.3011 59.6591 14.4602C59.6591 15.6193 59.4091 16.642 58.9091 17.5284C58.4091 18.4148 57.6847 19.1051 56.7358 19.5994C55.7926 20.0937 54.6506 20.3409 53.3097 20.3409H48.9205V17.3835H52.7131C53.4233 17.3835 54.0085 17.2614 54.4688 17.017C54.9347 16.767 55.2813 16.4233 55.5085 15.9858C55.7415 15.5426 55.858 15.0341 55.858 14.4602C55.858 13.8807 55.7415 13.375 55.5085 12.9432C55.2813 12.5057 54.9347 12.1676 54.4688 11.929C54.0028 11.6847 53.4119 11.5625 52.696 11.5625H50.2074V26H46.517ZM78.0959 17.2727C78.0959 19.1761 77.7351 20.7955 77.0135 22.1307C76.2976 23.4659 75.3203 24.4858 74.0817 25.1903C72.8487 25.8892 71.4624 26.2386 69.9226 26.2386C68.3714 26.2386 66.9794 25.8864 65.7464 25.1818C64.5135 24.4773 63.5391 23.4574 62.8232 22.1222C62.1072 20.7869 61.7493 19.1705 61.7493 17.2727C61.7493 15.3693 62.1072 13.75 62.8232 12.4148C63.5391 11.0795 64.5135 10.0625 65.7464 9.36364C66.9794 8.65909 68.3714 8.30682 69.9226 8.30682C71.4624 8.30682 72.8487 8.65909 74.0817 9.36364C75.3203 10.0625 76.2976 11.0795 77.0135 12.4148C77.7351 13.75 78.0959 15.3693 78.0959 17.2727ZM74.3544 17.2727C74.3544 16.0398 74.1697 15 73.8004 14.1534C73.4368 13.3068 72.9226 12.6648 72.2578 12.2273C71.593 11.7898 70.8146 11.571 69.9226 11.571C69.0305 11.571 68.2521 11.7898 67.5874 12.2273C66.9226 12.6648 66.4055 13.3068 66.0362 14.1534C65.6726 15 65.4908 16.0398 65.4908 17.2727C65.4908 18.5057 65.6726 19.5455 66.0362 20.392C66.4055 21.2386 66.9226 21.8807 67.5874 22.3182C68.2521 22.7557 69.0305 22.9744 69.9226 22.9744C70.8146 22.9744 71.593 22.7557 72.2578 22.3182C72.9226 21.8807 73.4368 21.2386 73.8004 20.392C74.1697 19.5455 74.3544 18.5057 74.3544 17.2727ZM80.8295 26V8.54545H87.7159C89.0341 8.54545 90.1591 8.78125 91.0909 9.25284C92.0284 9.71875 92.7415 10.3807 93.2301 11.2386C93.7244 12.0909 93.9716 13.0937 93.9716 14.2472C93.9716 15.4062 93.7216 16.4034 93.2216 17.2386C92.7216 18.0682 91.9972 18.7045 91.0483 19.1477C90.1051 19.5909 88.9631 19.8125 87.6222 19.8125H83.0114V16.8466H87.0256C87.7301 16.8466 88.3153 16.75 88.7812 16.5568C89.2472 16.3636 89.5938 16.0739 89.821 15.6875C90.054 15.3011 90.1705 14.821 90.1705 14.2472C90.1705 13.6676 90.054 13.179 89.821 12.7812C89.5938 12.3835 89.2443 12.0824 88.7727 11.8778C88.3068 11.6676 87.7188 11.5625 87.0085 11.5625H84.5199V26H80.8295ZM90.2557 18.0568L94.5938 26H90.5199L86.2756 18.0568H90.2557ZM95.9148 11.5881V8.54545H110.25V11.5881H104.906V26H101.259V11.5881H95.9148ZM113.487 26H109.532L115.558 8.54545H120.313L126.33 26H122.376L118.004 12.5341H117.867L113.487 26ZM113.239 19.1392H122.58V22.0199H113.239V19.1392ZM128.431 26V8.54545H132.121V22.9574H139.604V26H128.431Z" fill="#333333"/>
<rect width="35" height="35" rx="10" fill="#00237C"/>
<path d="M20.4025 11.1308L17.5983 13.5948C17.2283 13.277 16.8406 13.0467 16.4351 12.9037C16.0259 12.7565 15.6094 12.6914 15.1856 12.7083C14.7618 12.7252 14.3408 12.8228 13.9226 13.0012C13.5088 13.1758 13.114 13.4281 12.7384 13.7581C12.0598 14.3544 11.6168 15.0424 11.4094 15.8222C11.1983 16.5976 11.2353 17.4274 11.5205 18.3114C11.8018 19.1911 12.3419 20.0856 13.1408 20.9947C13.9621 21.9294 14.7909 22.5929 15.6272 22.985C16.4677 23.3735 17.2823 23.5086 18.071 23.3904C18.8596 23.2723 19.5848 22.9225 20.2463 22.3412C20.6177 22.0149 20.9181 21.6639 21.1477 21.2882C21.3816 20.9088 21.5397 20.5164 21.6223 20.1111C21.7011 19.7015 21.7015 19.2888 21.6237 18.8732C21.5501 18.4537 21.3916 18.0409 21.1481 17.6346L23.9635 15.1834C24.4198 15.849 24.7484 16.5889 24.9495 17.403C25.1511 18.2092 25.2018 19.0458 25.1015 19.913C25.0017 20.7721 24.7293 21.6242 24.2842 22.4691C23.8397 23.306 23.197 24.0938 22.3561 24.8327C21.1866 25.8603 19.9084 26.5145 18.5214 26.7953C17.1387 27.0724 15.7399 26.9439 14.3251 26.4096C12.9145 25.8717 11.5828 24.8899 10.3302 23.4643C9.0738 22.0345 8.27382 20.5818 7.93026 19.1062C7.5867 17.6306 7.64524 16.2253 8.10586 14.8902C8.56274 13.5509 9.36738 12.3749 10.5198 11.3623C11.2795 10.6947 12.0775 10.1826 12.9138 9.82594C13.7544 9.46553 14.6065 9.26893 15.4702 9.23612C16.3301 9.19905 17.1768 9.33625 18.0102 9.64773C18.8479 9.95546 19.6453 10.4498 20.4025 11.1308Z" fill="white"/>
<circle cx="25" cy="9" r="2" fill="white"/>
</svg>
