<?xml version="1.0" encoding="utf-8"?>
<!-- Generator: Adobe Illustrator 24.0.1, SVG Export Plug-In . SVG Version: 6.00 Build 0)  -->
<svg version="1.1" id="Calque_1" xmlns="http://www.w3.org/2000/svg" xmlns:xlink="http://www.w3.org/1999/xlink" x="0px" y="0px"
	 viewBox="0 0 141 36" style="enable-background:new 0 0 141 36;" xml:space="preserve">
<style type="text/css">
	.st0{fill:#FFFFFF;}
</style>
<g>
	<path class="st0" d="M74.1,9.4c-1.2-0.7-2.6-1.1-4.2-1.1c-1.6,0-2.9,0.4-4.2,1.1c-1.2,0.7-2.2,1.7-2.9,3.1c-0.7,1.3-1.1,3-1.1,4.9
		c0,1.9,0.4,3.5,1.1,4.8c0.7,1.3,1.7,2.4,2.9,3.1c1.2,0.7,2.6,1.1,4.2,1.1c1.5,0,2.9-0.3,4.2-1c1.2-0.7,2.2-1.7,2.9-3.1
		c0.7-1.3,1.1-3,1.1-4.9s-0.4-3.5-1.1-4.9C76.3,11.1,75.3,10.1,74.1,9.4z M73.8,20.4c-0.4,0.8-0.9,1.5-1.5,1.9S70.8,23,69.9,23
		c-0.9,0-1.7-0.2-2.3-0.7c-0.7-0.4-1.2-1.1-1.6-1.9c-0.4-0.8-0.5-1.9-0.5-3.1c0-1.2,0.2-2.3,0.5-3.1c0.4-0.8,0.9-1.5,1.6-1.9
		c0.7-0.4,1.4-0.7,2.3-0.7c0.9,0,1.7,0.2,2.3,0.7s1.2,1.1,1.5,1.9c0.4,0.8,0.6,1.9,0.6,3.1C74.4,18.5,74.2,19.5,73.8,20.4z"/>
	<path class="st0" d="M56.8,9.3c-0.9-0.5-2.1-0.8-3.4-0.8h-6.9V26h3.7v-5.7h3.1c1.3,0,2.5-0.2,3.4-0.7c0.9-0.5,1.7-1.2,2.2-2.1
		c0.5-0.9,0.8-1.9,0.8-3.1s-0.2-2.2-0.7-3.1C58.4,10.5,57.7,9.8,56.8,9.3z M55.5,16c-0.2,0.4-0.6,0.8-1,1c-0.5,0.2-1,0.4-1.8,0.4
		h-2.5v-5.8h2.5c0.7,0,1.3,0.1,1.8,0.4c0.5,0.2,0.8,0.6,1,1c0.2,0.4,0.3,0.9,0.3,1.5C55.9,15,55.7,15.5,55.5,16z"/>
	<path class="st0" d="M115.6,8.5l-6,17.5h4l1.3-4h6.3l1.3,4h4l-6-17.5H115.6z M115.7,19.1l2.1-6.6h0.1l2.1,6.6H115.7z"/>
	<polygon class="st0" points="132.1,23 132.1,8.5 128.4,8.5 128.4,26 139.6,26 139.6,23 	"/>
	<polygon class="st0" points="110.2,8.5 95.9,8.5 95.9,11.6 101.3,11.6 101.3,26 104.9,26 104.9,11.6 110.2,11.6 	"/>
	<path class="st0" d="M91,19.1c0.9-0.4,1.7-1.1,2.2-1.9c0.5-0.8,0.8-1.8,0.8-3c0-1.2-0.2-2.2-0.7-3c-0.5-0.9-1.2-1.5-2.1-2
		c-0.9-0.5-2.1-0.7-3.4-0.7h-6.9V26h3.7v-6.2h2.7l3.3,6.2h4.1l-3.7-6.8C90.9,19.2,91,19.2,91,19.1z M84.5,11.6H87
		c0.7,0,1.3,0.1,1.8,0.3c0.5,0.2,0.8,0.5,1,0.9c0.2,0.4,0.3,0.9,0.3,1.5c0,0.6-0.1,1.1-0.3,1.4c-0.2,0.4-0.6,0.7-1,0.9
		c-0.5,0.2-1.1,0.3-1.8,0.3h-2.5V11.6z"/>
</g>
<path class="st0" d="M25,0H10C4.5,0,0,4.5,0,10v15c0,5.5,4.5,10,10,10h15c5.5,0,10-4.5,10-10V10C35,4.5,30.5,0,25,0z M25.1,19.9
	c-0.1,0.9-0.4,1.7-0.8,2.6c-0.4,0.8-1.1,1.6-1.9,2.4c-1.2,1-2.4,1.7-3.8,2c-1.4,0.3-2.8,0.1-4.2-0.4c-1.4-0.5-2.7-1.5-4-2.9
	c-1.3-1.4-2.1-2.9-2.4-4.4s-0.3-2.9,0.2-4.2c0.5-1.3,1.3-2.5,2.4-3.5c0.8-0.7,1.6-1.2,2.4-1.5c0.8-0.4,1.7-0.6,2.6-0.6
	c0.9,0,1.7,0.1,2.5,0.4c0.8,0.3,1.6,0.8,2.4,1.5l-2.8,2.5c-0.4-0.3-0.8-0.5-1.2-0.7c-0.4-0.1-0.8-0.2-1.2-0.2
	c-0.4,0-0.8,0.1-1.3,0.3c-0.4,0.2-0.8,0.4-1.2,0.8c-0.7,0.6-1.1,1.3-1.3,2.1c-0.2,0.8-0.2,1.6,0.1,2.5c0.3,0.9,0.8,1.8,1.6,2.7
	c0.8,0.9,1.7,1.6,2.5,2c0.8,0.4,1.7,0.5,2.4,0.4c0.8-0.1,1.5-0.5,2.2-1c0.4-0.3,0.7-0.7,0.9-1.1c0.2-0.4,0.4-0.8,0.5-1.2
	c0.1-0.4,0.1-0.8,0-1.2c-0.1-0.4-0.2-0.8-0.5-1.2l2.8-2.5c0.5,0.7,0.8,1.4,1,2.2C25.2,18.2,25.2,19,25.1,19.9z M25,11
	c-1.1,0-2-0.9-2-2s0.9-2,2-2s2,0.9,2,2S26.1,11,25,11z"/>
</svg>
