<svg width="137" height="131" viewBox="0 0 137 131" fill="none" xmlns="http://www.w3.org/2000/svg">
<rect width="137" height="130.857" rx="40" fill="#1A237E"/>
<path d="M43.7317 41.5689C44.3855 41.5689 44.9155 41.0395 44.9155 40.3864C44.9155 39.7333 44.3855 39.2039 43.7317 39.2039C43.0779 39.2039 42.5479 39.7333 42.5479 40.3864C42.5479 41.0395 43.0779 41.5689 43.7317 41.5689Z" fill="white"/>
<path d="M48.5852 41.5689C49.239 41.5689 49.769 41.0395 49.769 40.3864C49.769 39.7333 49.239 39.2039 48.5852 39.2039C47.9314 39.2039 47.4014 39.7333 47.4014 40.3864C47.4014 41.0395 47.9314 41.5689 48.5852 41.5689Z" fill="white"/>
<path d="M53.4387 41.5689C54.0925 41.5689 54.6225 41.0395 54.6225 40.3864C54.6225 39.7333 54.0925 39.2039 53.4387 39.2039C52.7849 39.2039 52.2549 39.7333 52.2549 40.3864C52.2549 41.0395 52.7849 41.5689 53.4387 41.5689Z" fill="white"/>
<path d="M94.7773 35.9607H41.2227C39.4456 35.9607 38 37.4047 38 39.1798V66.2281C38 66.7129 38.3935 67.106 38.8789 67.106C39.3643 67.106 39.7578 66.7129 39.7578 66.2281V44.8116H96.2422V53.3393C96.2422 53.8242 96.6357 54.2173 97.1211 54.2173C97.6065 54.2173 98 53.8242 98 53.3393V39.1798C98 37.4047 96.5544 35.9607 94.7773 35.9607ZM39.7578 43.0557V39.1798C39.7578 38.3729 40.4149 37.7166 41.2227 37.7166H94.7773C95.5851 37.7166 96.2422 38.3729 96.2422 39.1798V43.0557H39.7578Z" fill="white"/>
<path d="M97.1211 56.573C96.6357 56.573 96.2422 56.9661 96.2422 57.4509V92.6763C96.2422 93.4832 95.5851 94.1395 94.7773 94.1395H41.2227C40.4149 94.1395 39.7578 93.4832 39.7578 92.6763V70.3252C39.7578 69.8403 39.3643 69.4473 38.8789 69.4473C38.3935 69.4473 38 69.8403 38 70.3252V92.6763C38 94.4514 39.4456 95.8954 41.2227 95.8954H94.7773C96.5544 95.8954 98 94.4514 98 92.6763V57.4509C98 56.9661 97.6065 56.573 97.1211 56.573Z" fill="white"/>
<path d="M65.1596 47.5491H43.3779C42.8925 47.5491 42.499 47.9422 42.499 48.427V90.4056C42.499 90.8904 42.8925 91.2835 43.3779 91.2835H65.1596C65.645 91.2835 66.0385 90.8904 66.0385 90.4056V90.2411C66.0385 90.241 66.0385 90.2408 66.0385 90.2407V48.4269C66.0385 47.9422 65.645 47.5491 65.1596 47.5491ZM44.2568 52.0287L53.2789 69.4163L44.2568 86.8038V52.0287ZM44.8234 49.305H63.7141L54.2687 67.5085L44.8234 49.305ZM54.2687 71.3242L63.7141 89.5277H44.8234L54.2687 71.3242ZM55.2586 69.4163L64.2805 52.0288V86.804L55.2586 69.4163Z" fill="white"/>
<path d="M70.8408 71.0629H92.6225C93.1079 71.0629 93.5014 70.6698 93.5014 70.185V48.427C93.5014 47.9422 93.1079 47.5491 92.6225 47.5491H70.8408C70.3554 47.5491 69.9619 47.9422 69.9619 48.427V70.185C69.9619 70.6698 70.3554 71.0629 70.8408 71.0629ZM91.7436 68.0654L82.9747 59.306L91.7436 50.5466V68.0654ZM90.5005 69.307H72.9627L81.7316 60.5476L90.5005 69.307ZM81.7316 58.0643L72.9627 49.305H90.5007L81.7316 58.0643ZM80.4888 59.306L71.7198 68.0654V50.5466L80.4888 59.306Z" fill="white"/>
<path d="M70.8408 75.0835H92.6225C93.1079 75.0835 93.5014 74.6904 93.5014 74.2056C93.5014 73.7207 93.1079 73.3276 92.6225 73.3276H70.8408C70.3554 73.3276 69.9619 73.7207 69.9619 74.2056C69.9619 74.6904 70.3554 75.0835 70.8408 75.0835Z" fill="white"/>
<path d="M70.8408 79.8133H92.6225C93.1079 79.8133 93.5014 79.4202 93.5014 78.9353C93.5014 78.4505 93.1079 78.0574 92.6225 78.0574H70.8408C70.3554 78.0574 69.9619 78.4505 69.9619 78.9353C69.9619 79.4202 70.3554 79.8133 70.8408 79.8133Z" fill="white"/>
<path d="M70.8408 84.5435H83.0337C83.5191 84.5435 83.9126 84.1504 83.9126 83.6655C83.9126 83.1807 83.5191 82.7876 83.0337 82.7876H70.8408C70.3554 82.7876 69.9619 83.1807 69.9619 83.6655C69.9619 84.1504 70.3554 84.5435 70.8408 84.5435Z" fill="white"/>
</svg>
