<svg width="137" height="131" viewBox="0 0 137 131" fill="none" xmlns="http://www.w3.org/2000/svg">
<rect width="137" height="130.857" rx="40" fill="#1A237E"/>
<path d="M88.4946 88.9967V94.8966C88.4946 95.4482 88.0469 95.8954 87.4947 95.8954C86.9425 95.8954 86.4948 95.4482 86.4948 94.8966V88.9967C86.4948 84.4029 82.7734 80.6853 78.1743 80.6855C75.9982 80.6855 74.0238 79.5781 72.8926 77.7231C72.6054 77.252 72.7548 76.6374 73.2264 76.3505C73.698 76.0635 74.3132 76.2128 74.6005 76.684C75.3657 77.9388 76.7016 78.6879 78.1743 78.6879C83.8782 78.6876 88.4946 83.2985 88.4946 88.9967V88.9967ZM71.0461 78.9848C71.1637 79.5238 70.8216 80.0559 70.2821 80.1733C67.6507 80.746 64.9744 80.1727 62.8436 78.7199C60.7341 80.978 57.9472 80.6855 58.3203 80.6855C53.7215 80.6853 49.9997 84.4025 49.9997 88.9967V94.8966C49.9997 95.4482 49.552 95.8954 48.9999 95.8954C48.4477 95.8954 48 95.4482 48 94.8966V88.9967C48 83.2991 52.6155 78.6879 58.32 78.6879C60.6275 78.6879 62.4981 76.8308 62.4981 74.5252V74.2622C58.1338 72.1776 55.0704 67.7971 54.8837 62.6959C53.0877 62.2646 51.7495 60.6588 51.7495 58.7482V53.5704C51.6949 51.036 52.0716 44.6884 56.7049 40.2271C62.426 34.7181 71.6008 35.068 78.3471 38.3122C79.0047 38.6287 79.1045 39.5161 78.5585 39.9757C81.9762 40.8084 84.9233 42.9071 86.8167 45.9107C86.9144 46.0653 87.0934 46.3082 87.0466 46.6956C87.0176 46.9367 86.9458 47.1407 86.7598 47.3292C85.5412 48.5637 84.8702 50.1995 84.8702 51.9356V58.7485C84.8702 59.3001 84.4225 59.7473 83.8703 59.7473C83.3181 59.7473 82.8704 59.3001 82.8704 58.7485V51.9356C82.8704 49.9334 83.5552 48.0329 84.8129 46.5063C82.8959 43.7677 79.9051 42.0063 76.5225 41.6445L74.7651 41.4565C73.7375 41.3466 73.5359 39.9325 74.4909 39.5398L75.2902 39.2111C64.8808 35.5861 53.7491 39.6138 53.7491 53.5596V58.7482C53.7491 59.5408 54.2061 60.2296 54.874 60.5755V54.1005C54.874 50.2455 58.0138 47.1091 61.8731 47.1091H74.6214C78.4806 47.1091 81.6205 50.2452 81.6205 54.1002V62.2781C81.6205 70.9642 73.1231 77.5619 64.4765 75.0191C64.4202 75.7318 64.2426 76.4194 63.9533 77.0586C65.6353 78.2125 67.7594 78.6779 69.8563 78.2215C70.3958 78.1041 70.9285 78.4458 71.0461 78.9848V78.9848ZM68.2472 73.5633C74.5186 73.5633 79.6207 68.4667 79.6207 62.2021V54.1002C79.6207 51.3468 77.378 49.1066 74.6214 49.1066H61.8731C59.1164 49.1066 56.8737 51.3469 56.8737 54.1005V62.2021C56.8737 68.4667 61.9758 73.5633 68.2472 73.5633ZM78.3709 90.7766H75.3713C74.8191 90.7766 74.3714 91.2238 74.3714 91.7754C74.3714 92.327 74.8191 92.7742 75.3713 92.7742H78.3709C78.9231 92.7742 79.3708 92.327 79.3708 91.7754C79.3708 91.2238 78.9231 90.7766 78.3709 90.7766Z" fill="white"/>
</svg>
