<svg width="137" height="131" viewBox="0 0 137 131" fill="none" xmlns="http://www.w3.org/2000/svg">
<rect width="137" height="130.857" rx="40" fill="#1A237E"/>
<path d="M67.9994 40.6592C68.2079 40.6592 68.4079 40.5765 68.5553 40.4292C68.7027 40.282 68.7855 40.0822 68.7855 39.874V33.7493C68.7855 33.5411 68.7027 33.3414 68.5553 33.1941C68.4079 33.0468 68.2079 32.9641 67.9994 32.9641C67.791 32.9641 67.591 33.0468 67.4436 33.1941C67.2962 33.3414 67.2134 33.5411 67.2134 33.7493V39.874C67.2134 40.0822 67.2962 40.282 67.4436 40.4292C67.591 40.5765 67.791 40.6592 67.9994 40.6592Z" fill="white"/>
<path d="M97.2143 62.1455H91.0829C90.8745 62.1455 90.6745 62.2282 90.5271 62.3755C90.3797 62.5227 90.2969 62.7225 90.2969 62.9307C90.2969 63.139 90.3797 63.3387 90.5271 63.486C90.6745 63.6332 90.8745 63.7159 91.0829 63.7159H97.2143C97.4228 63.7159 97.6227 63.6332 97.7701 63.486C97.9175 63.3387 98.0004 63.139 98.0004 62.9307C98.0004 62.7225 97.9175 62.5227 97.7701 62.3755C97.6227 62.2282 97.4228 62.1455 97.2143 62.1455Z" fill="white"/>
<path d="M44.9174 62.1455H38.7861C38.5776 62.1455 38.3777 62.2282 38.2302 62.3755C38.0828 62.5227 38 62.7225 38 62.9307C38 63.139 38.0828 63.3387 38.2302 63.486C38.3777 63.6332 38.5776 63.7159 38.7861 63.7159H44.9174C45.1259 63.7159 45.3258 63.6332 45.4732 63.486C45.6207 63.3387 45.7035 63.139 45.7035 62.9307C45.7035 62.7225 45.6207 62.5227 45.4732 62.3755C45.3258 62.2282 45.1259 62.1455 44.9174 62.1455Z" fill="white"/>
<path d="M90.1104 40.8443C90.0374 40.7714 89.9508 40.7135 89.8554 40.674C89.76 40.6346 89.6578 40.6143 89.5545 40.6143C89.4513 40.6143 89.3491 40.6346 89.2537 40.674C89.1583 40.7135 89.0717 40.7714 88.9987 40.8443L84.2146 45.6231C84.0672 45.7704 83.9844 45.9701 83.9844 46.1783C83.9844 46.3866 84.0672 46.5863 84.2146 46.7336C84.362 46.8809 84.5619 46.9636 84.7704 46.9636C84.9789 46.9636 85.1789 46.8809 85.3263 46.7337L90.1104 41.9547C90.2578 41.8075 90.3406 41.6077 90.3406 41.3995C90.3406 41.1913 90.2578 40.9915 90.1104 40.8443Z" fill="white"/>
<path d="M51.7849 46.7335C51.8579 46.6606 51.9158 46.574 51.9553 46.4787C51.9948 46.3835 52.0151 46.2814 52.0151 46.1782C52.0151 46.0751 51.9948 45.973 51.9553 45.8777C51.9158 45.7824 51.8579 45.6959 51.7849 45.623L47.0007 40.8441C46.9279 40.7703 46.8412 40.7115 46.7456 40.6712C46.65 40.631 46.5473 40.61 46.4436 40.6096C46.3398 40.6092 46.237 40.6293 46.141 40.6688C46.0451 40.7083 45.9579 40.7663 45.8845 40.8396C45.8112 40.9129 45.753 41 45.7135 41.0958C45.674 41.1917 45.6539 41.2944 45.6543 41.398C45.6547 41.5017 45.6757 41.6042 45.716 41.6997C45.7563 41.7953 45.8151 41.8819 45.8891 41.9546L50.6731 46.7334C50.7461 46.8063 50.8327 46.8642 50.9281 46.9036C51.0235 46.9431 51.1257 46.9634 51.229 46.9634C51.3322 46.9634 51.4344 46.9431 51.5298 46.9036C51.6252 46.8642 51.7119 46.8063 51.7849 46.7334V46.7335Z" fill="white"/>
<path d="M54.3848 61.9705C54.3848 62.1787 54.4676 62.3785 54.615 62.5257C54.7624 62.673 54.9624 62.7557 55.1708 62.7557C55.3793 62.7557 55.5792 62.673 55.7267 62.5257C55.8741 62.3785 55.9569 62.1787 55.9569 61.9705C55.9569 61.7938 55.9608 61.615 55.9684 61.439C55.9774 61.231 55.9032 61.0279 55.7623 60.8744C55.6213 60.721 55.4251 60.6298 55.2168 60.6208C55.0085 60.6119 54.8052 60.686 54.6516 60.8268C54.498 60.9676 54.4067 61.1636 54.3977 61.3716C54.3891 61.5699 54.3848 61.7714 54.3848 61.9705Z" fill="white"/>
<path d="M55.367 59.5842C55.4671 59.6094 55.5712 59.6146 55.6733 59.5995C55.7755 59.5845 55.8736 59.5495 55.9622 59.4965C56.0508 59.4436 56.1281 59.3737 56.1896 59.2909C56.2512 59.2082 56.2958 59.1141 56.321 59.0141C56.9052 56.7241 58.1503 54.6562 59.9014 53.0673C61.6526 51.4784 63.8326 50.4386 66.1704 50.0771C66.3754 50.0447 66.5593 49.9327 66.6819 49.7654C66.8045 49.5981 66.8559 49.3892 66.8248 49.1842C66.7938 48.9793 66.6829 48.7949 66.5163 48.6712C66.3497 48.5476 66.141 48.4948 65.9355 48.5244C63.2911 48.9322 60.8252 50.1078 58.8446 51.9048C56.8639 53.7019 55.456 56.0411 54.7962 58.6314C54.7454 58.8334 54.777 59.0472 54.884 59.2259C54.9911 59.4046 55.1648 59.5335 55.367 59.5842Z" fill="white"/>
<path d="M79.8326 49.9488C76.9271 47.0883 73.0823 45.3764 69.0103 45.13C64.9382 44.8835 60.9147 46.1193 57.6846 48.6084C57.5961 48.6767 57.5231 48.7631 57.4706 48.8618C57.4181 48.9604 57.3872 49.0691 57.3799 49.1807C57.3727 49.2922 57.3894 49.404 57.4288 49.5086C57.4682 49.6132 57.5294 49.7082 57.6084 49.7873C57.7446 49.9225 57.9255 50.0034 58.1172 50.0148C58.3089 50.0261 58.4982 49.9672 58.6494 49.8489C61.7695 47.4475 65.6958 46.3389 69.6128 46.7534C73.5297 47.1679 77.1363 49.0736 79.6835 52.0748C82.2307 55.076 83.5226 58.942 83.291 62.8697C83.0594 66.7975 81.3221 70.4853 78.4399 73.167C77.1938 74.3189 76.1976 75.7141 75.5132 77.2661C74.8287 78.8181 74.4705 80.494 74.4607 82.1899V82.8224H70.3665L73.6287 68.3532C73.9661 67.8663 74.1659 67.6633 74.4934 67.6633C74.7019 67.6633 74.9018 67.5806 75.0492 67.4334C75.1967 67.2861 75.2795 67.0864 75.2795 66.8781C75.2795 66.6699 75.1967 66.4702 75.0492 66.3229C74.9018 66.1756 74.7019 66.0929 74.4934 66.0929C73.2534 66.0929 72.6437 66.9992 72.1984 67.6609C71.7808 68.2817 71.5742 68.5344 71.2082 68.5344C70.8421 68.5344 70.6355 68.2817 70.2178 67.6609C69.7724 66.9992 69.1629 66.0929 67.9228 66.0929C66.6826 66.0929 66.0742 66.9992 65.6288 67.6611C65.2115 68.2817 65.0052 68.5344 64.6398 68.5344C64.2744 68.5344 64.0676 68.2817 63.6502 67.661C63.2048 66.9992 62.5956 66.0929 61.3556 66.0929C61.1471 66.0929 60.9472 66.1756 60.7997 66.3229C60.6523 66.4702 60.5695 66.6699 60.5695 66.8781C60.5695 67.0864 60.6523 67.2861 60.7997 67.4334C60.9472 67.5806 61.1471 67.6633 61.3556 67.6633C61.6886 67.6633 61.8901 67.8739 62.2385 68.38L65.6251 82.8224H61.5395V82.1899C61.5435 80.5104 61.1992 78.8483 60.5283 77.3082C59.8574 75.7682 58.8745 74.3837 57.6414 73.2419C55.1495 70.9539 53.4851 67.9069 52.9075 64.5755C52.3299 61.2442 52.8715 57.8155 54.448 54.8237C54.5276 54.675 54.5573 54.5048 54.5328 54.338C54.5083 54.1712 54.4308 54.0167 54.3117 53.8972C54.2251 53.8104 54.1193 53.7451 54.0028 53.7064C53.8863 53.6678 53.7624 53.657 53.6409 53.6748C53.5195 53.6926 53.4039 53.7386 53.3034 53.809C53.203 53.8794 53.1204 53.9724 53.0624 54.0805C51.321 57.3798 50.7215 61.1621 51.3575 64.8375C51.9934 68.5128 53.8291 71.8747 56.5781 74.3988C57.651 75.3933 58.5061 76.599 59.0894 77.9399C59.6728 79.2809 59.9717 80.728 59.9675 82.1901V82.8383C59.3854 82.9047 58.848 83.1825 58.4576 83.619C58.0672 84.0554 57.851 84.62 57.8502 85.2053V85.416C57.8504 85.8041 57.9454 86.1864 58.1272 86.5295C58.309 86.8725 58.572 87.166 58.8932 87.3844C58.668 87.7543 58.5487 88.1789 58.5485 88.6119V88.8228C58.5487 89.2109 58.6438 89.5931 58.8255 89.9362C59.0073 90.2792 59.2703 90.5727 59.5915 90.791C59.3662 91.161 59.2469 91.5857 59.2467 92.0187V92.2294C59.2477 92.8416 59.4845 93.43 59.9079 93.8726C60.3313 94.3152 60.909 94.5782 61.5212 94.607C61.8022 95.764 62.4647 96.7929 63.4021 97.5282C64.3395 98.2634 65.4973 98.6622 66.6892 98.6603H69.311C70.5028 98.6622 71.6606 98.2635 72.5981 97.5284C73.5355 96.7932 74.1981 95.7644 74.4791 94.6074C75.0913 94.5786 75.669 94.3157 76.0924 93.873C76.5159 93.4304 76.7526 92.842 76.7536 92.2298V92.0191C76.7534 91.5861 76.6341 91.1614 76.4088 90.7914C76.7301 90.5731 76.993 90.2796 77.1748 89.9366C77.3566 89.5935 77.4518 89.2113 77.4519 88.8232V88.6123C77.4517 88.1793 77.3324 87.7547 77.1071 87.3848C77.4283 87.1664 77.6913 86.8729 77.8731 86.5298C78.0549 86.1868 78.15 85.8045 78.1501 85.4164V85.2057C78.1494 84.6203 77.9332 84.0557 77.5428 83.6191C77.1524 83.1826 76.615 82.9047 76.0328 82.8383V82.1774C76.0436 80.699 76.3579 79.2385 76.9562 77.8863C77.5546 76.5341 78.4242 75.3188 79.5114 74.3157C81.181 72.7642 82.5184 70.8907 83.4426 68.8083C84.3669 66.726 84.8589 64.4781 84.889 62.2004C84.919 59.9227 84.4864 57.6627 83.6173 55.5567C82.7483 53.4508 81.4608 51.5427 79.8326 49.9479V49.9488ZM64.2501 70.0712C64.379 70.0934 64.5094 70.1046 64.6402 70.1048C65.8799 70.1048 66.4893 69.1984 66.9343 68.5366C67.3514 67.9161 67.5578 67.6633 67.9232 67.6633C68.2886 67.6633 68.4958 67.9161 68.9135 68.5369C69.3589 69.1986 69.9684 70.1048 71.2086 70.1048C71.3503 70.1051 71.4917 70.0923 71.6311 70.0666L68.755 82.8224H67.2402L64.2501 70.0712ZM69.311 97.0899H66.6892C65.9171 97.0912 65.1636 96.8538 64.532 96.4103C63.9003 95.9669 63.4215 95.3391 63.1612 94.6131H72.839C72.5786 95.3391 72.0998 95.9668 71.4682 96.4103C70.8365 96.8537 70.083 97.0911 69.311 97.0899ZM75.1815 92.2298C75.1812 92.4453 75.0954 92.6519 74.9429 92.8043C74.7903 92.9567 74.5835 93.0424 74.3678 93.0426H61.6329C61.4172 93.0424 61.2104 92.9567 61.0578 92.8043C60.9053 92.6519 60.8195 92.4453 60.8192 92.2298V92.0191C60.8195 91.8036 60.9053 91.597 61.0578 91.4446C61.2104 91.2922 61.4172 91.2065 61.6329 91.2063H74.3672C74.583 91.2065 74.7898 91.2922 74.9424 91.4446C75.0949 91.597 75.1807 91.8036 75.181 92.0191L75.1815 92.2298ZM75.8798 88.8232C75.8795 89.0386 75.7937 89.2452 75.6411 89.3976C75.4886 89.5499 75.2818 89.6356 75.0661 89.6358H60.9341C60.7184 89.6356 60.5116 89.5499 60.3591 89.3976C60.2066 89.2452 60.1208 89.0386 60.1205 88.8232V88.6123C60.1208 88.3969 60.2066 88.1903 60.3591 88.0379C60.5116 87.8856 60.7184 87.7999 60.9341 87.7996H75.0661C75.2818 87.7999 75.4886 87.8856 75.6411 88.0379C75.7937 88.1903 75.8795 88.3968 75.8798 88.6123V88.8232ZM76.5779 85.2057V85.4164C76.5777 85.6319 76.4919 85.8384 76.3394 85.9908C76.1869 86.1432 75.9801 86.2289 75.7644 86.2292H60.2358C60.0201 86.2289 59.8133 86.1432 59.6608 85.9908C59.5083 85.8384 59.4225 85.6319 59.4222 85.4164V85.2057C59.4225 84.9902 59.5083 84.7836 59.6608 84.6312C59.8133 84.4789 60.0201 84.3931 60.2358 84.3928H75.7644C75.9801 84.3931 76.1869 84.4789 76.3394 84.6312C76.4919 84.7836 76.5777 84.9902 76.5779 85.2057Z" fill="white"/>
</svg>
