<svg width="137" height="131" viewBox="0 0 137 131" fill="none" xmlns="http://www.w3.org/2000/svg">
<rect width="137" height="130.857" rx="40" fill="#1A237E"/>
<path d="M94.6113 67.5625C93.972 67.5625 93.4532 68.0796 93.4532 68.7193C93.4532 82.753 82.0239 94.1698 67.975 94.1698C58.0026 94.1698 49.0933 88.4504 44.9068 79.5046L50.9208 82.1792C51.5045 82.4429 52.1901 82.178 52.4495 81.5927C52.7101 81.0096 52.4472 80.3259 51.8623 80.0668L43.3978 76.3024C42.8118 76.0375 42.1297 76.3047 41.8691 76.8889L38.1006 85.3443C37.8401 85.9273 38.103 86.611 38.6878 86.8702C38.8407 86.9396 39.0016 86.9708 39.158 86.9708C39.6015 86.9708 40.0242 86.7151 40.2165 86.2836L42.8048 80.4763C47.3689 90.24 57.09 96.4835 67.9727 96.4835C83.2978 96.4835 95.7671 84.0278 95.7671 68.7193C95.7694 68.0808 95.2506 67.5625 94.6113 67.5625Z" fill="white"/>
<path d="M97.3144 50.5212C96.7284 50.2586 96.0451 50.5235 95.7857 51.1077L93.1614 56.9961C88.6043 47.2057 78.8902 40.9553 67.9751 40.9553C52.6499 40.9553 40.1807 53.411 40.1807 68.7195C40.1807 69.3592 40.6995 69.8763 41.3388 69.8763C41.978 69.8763 42.4969 69.3592 42.4969 68.7195C42.4969 54.6859 53.9262 43.269 67.9751 43.269C77.9336 43.269 86.8046 48.9445 91.0062 57.8452L85.0814 55.2111C84.4965 54.9461 83.8121 55.2134 83.5527 55.7976C83.2921 56.3806 83.555 57.0643 84.1398 57.3234L92.6044 61.0878C92.7572 61.1572 92.9182 61.1884 93.0746 61.1884C93.5181 61.1884 93.9408 60.9328 94.1331 60.5013L97.9015 52.0459C98.1609 51.4641 97.8981 50.7804 97.3144 50.5212Z" fill="white"/>
</svg>
